<!-- icon666.com - MILLIONS OF FREE VECTOR ICONS --><svg id="Layer_1" viewBox="0 0 48 48" xmlns="http://www.w3.org/2000/svg" data-name="Layer 1"><path d="m41.328 28.562-12.482-3.841v-1.659a14.577 14.577 0 0 0 4.469-9.9v-4.079h4.694a.75.75 0 0 0 0-1.5h-4.694v-4a3.584 3.584 0 0 0 -3.58-3.583h-11.464a3.585 3.585 0 0 0 -3.581 3.58v4h-4.7a.75.75 0 0 0 0 1.5h4.694v4.08a14.58 14.58 0 0 0 4.482 9.912v1.642l-12.494 3.848a4.378 4.378 0 0 0 -3.058 3.838l-1.072 14.8a.75.75 0 0 0 .693.8h.056a.749.749 0 0 0 .747-.7l1.072-14.787a2.868 2.868 0 0 1 2-2.517l7.89-2.427-1.056 2.354a.752.752 0 0 0 .743 1.055l2.546-.2-.565 1.506a.748.748 0 0 0 .252.863l6.342 4.757v9.346a.75.75 0 0 0 1.5 0v-9.35l6.33-4.749a.749.749 0 0 0 .252-.863l-.565-1.506 2.547.2a.751.751 0 0 0 .742-1.055l-1.054-2.35 7.873 2.423a2.868 2.868 0 0 1 2 2.518l1.072 14.791a.749.749 0 0 0 .747.7h.056a.75.75 0 0 0 .693-.8l-1.072-14.79a4.378 4.378 0 0 0 -3.055-3.857zm-9.513-19.479v3.293h-.984a3.089 3.089 0 0 0 -6 0h-1.661a3.089 3.089 0 0 0 -6 0h-.984v-3.293zm-2.381 4.043a1.6 1.6 0 1 1 -1.6-1.6 1.606 1.606 0 0 1 1.6 1.6zm-7.662 0a1.6 1.6 0 1 1 -1.6-1.6 1.6 1.6 0 0 1 1.6 1.6zm-4.6.75a3.09 3.09 0 0 0 6 0h1.66a3.09 3.09 0 0 0 6 0h.945c-.4 5.249-5.03 10.173-7.776 10.173s-7.38-4.924-7.776-10.173zm3.5 10.434a6.127 6.127 0 0 0 3.328 1.239 6.142 6.142 0 0 0 3.346-1.249v.829l-3.346 9.346-3.333-9.31zm-4.482-20.73a2.084 2.084 0 0 1 2.081-2.08h11.464a2.083 2.083 0 0 1 2.08 2.08v4h-15.625zm2.757 25.913a.762.762 0 0 0 -.657-.3l-2.462.19 1.078-2.4 2.538-.781 3.412 9.528-4.587-3.441.781-2.081a.747.747 0 0 0 -.103-.715zm13.235-.108-2.461-.19a.769.769 0 0 0 -.658.3.749.749 0 0 0 -.1.714l.78 2.081-4.6 3.451 3.413-9.541 2.549.785z"></path></svg>