<svg width="276" height="51" viewBox="0 0 276 51" fill="none" xmlns="http://www.w3.org/2000/svg">
<path d="M25.5 42.5C30.0087 42.5 34.3327 40.7089 37.5208 37.5208C40.7089 34.3327 42.5 30.0087 42.5 25.5C42.5 20.9913 40.7089 16.6673 37.5208 13.4792C34.3327 10.2911 30.0087 8.5 25.5 8.5C20.9913 8.5 16.6673 10.2911 13.4792 13.4792C10.2911 16.6673 8.5 20.9913 8.5 25.5C8.5 30.0087 10.2911 34.3327 13.4792 37.5208C16.6673 40.7089 20.9913 42.5 25.5 42.5Z" stroke="black" stroke-width="2" stroke-linecap="round" stroke-linejoin="round"/>
<path d="M25.5 29.75C26.6272 29.75 27.7082 29.3022 28.5052 28.5052C29.3022 27.7082 29.75 26.6272 29.75 25.5C29.75 24.3728 29.3022 23.2918 28.5052 22.4948C27.7082 21.6978 26.6272 21.25 25.5 21.25C24.3728 21.25 23.2918 21.6978 22.4948 22.4948C21.6978 23.2918 21.25 24.3728 21.25 25.5C21.25 26.6272 21.6978 27.7082 22.4948 28.5052C23.2918 29.3022 24.3728 29.75 25.5 29.75Z" stroke="black" stroke-width="2" stroke-linecap="round" stroke-linejoin="round"/>
<path d="M25.5 4.25V8.5" stroke="black" stroke-width="2" stroke-linecap="round" stroke-linejoin="round"/>
<path d="M25.5 46.75V42.5" stroke="black" stroke-width="2" stroke-linecap="round" stroke-linejoin="round"/>
<path d="M36.125 43.9023L34 40.2261" stroke="black" stroke-width="2" stroke-linecap="round" stroke-linejoin="round"/>
<path d="M23.375 21.8239L14.875 7.09766" stroke="black" stroke-width="2" stroke-linecap="round" stroke-linejoin="round"/>
<path d="M43.9028 36.125L40.2266 34" stroke="black" stroke-width="2" stroke-linecap="round" stroke-linejoin="round"/>
<path d="M7.09766 14.875L10.7739 17" stroke="black" stroke-width="2" stroke-linecap="round" stroke-linejoin="round"/>
<path d="M29.75 25.5H46.75" stroke="black" stroke-width="2" stroke-linecap="round" stroke-linejoin="round"/>
<path d="M4.25 25.5H8.5" stroke="black" stroke-width="2" stroke-linecap="round" stroke-linejoin="round"/>
<path d="M43.9028 14.875L40.2266 17" stroke="black" stroke-width="2" stroke-linecap="round" stroke-linejoin="round"/>
<path d="M7.09766 36.125L10.7739 34" stroke="black" stroke-width="2" stroke-linecap="round" stroke-linejoin="round"/>
<path d="M36.125 7.09766L34 10.7739" stroke="black" stroke-width="2" stroke-linecap="round" stroke-linejoin="round"/>
<path d="M23.375 29.1763L14.875 43.9025" stroke="black" stroke-width="2" stroke-linecap="round" stroke-linejoin="round"/>
<path d="M73.3438 22.8438V32.1875C72.9583 32.6146 72.3646 33.0729 71.5625 33.5625C70.7708 34.0417 69.7708 34.4531 68.5625 34.7969C67.3542 35.1406 65.9323 35.3125 64.2969 35.3125C62.7865 35.3125 61.4167 35.0729 60.1875 34.5938C58.9583 34.1042 57.901 33.3906 57.0156 32.4531C56.1406 31.5052 55.4635 30.349 54.9844 28.9844C54.5156 27.6094 54.2812 26.0365 54.2812 24.2656V23C54.2812 21.2292 54.5208 19.6562 55 18.2812C55.4792 16.9062 56.151 15.75 57.0156 14.8125C57.8906 13.8646 58.9167 13.1458 60.0938 12.6562C61.2812 12.1667 62.5833 11.9219 64 11.9219C66.0938 11.9219 67.7969 12.2552 69.1094 12.9219C70.4219 13.5781 71.4167 14.4896 72.0938 15.6562C72.7708 16.8125 73.1823 18.151 73.3281 19.6719H68.0625C67.9583 18.9219 67.7604 18.2865 67.4688 17.7656C67.1875 17.2344 66.7812 16.8333 66.25 16.5625C65.7188 16.2812 65.0312 16.1406 64.1875 16.1406C63.5312 16.1406 62.9323 16.2812 62.3906 16.5625C61.8594 16.8438 61.4062 17.2708 61.0312 17.8438C60.6562 18.4062 60.3646 19.1146 60.1562 19.9688C59.9583 20.8229 59.8594 21.8229 59.8594 22.9688V24.2656C59.8594 25.401 59.9531 26.3958 60.1406 27.25C60.3385 28.1042 60.6302 28.8177 61.0156 29.3906C61.4115 29.9531 61.9115 30.3802 62.5156 30.6719C63.1302 30.9531 63.8542 31.0938 64.6875 31.0938C65.2708 31.0938 65.7708 31.0469 66.1875 30.9531C66.6042 30.849 66.9479 30.724 67.2188 30.5781C67.5 30.4219 67.7135 30.276 67.8594 30.1406V26.6094H64.0469V22.8438H73.3438ZM84.4844 35.3125C83.1094 35.3125 81.8802 35.099 80.7969 34.6719C79.7135 34.2344 78.7969 33.6354 78.0469 32.875C77.3073 32.1146 76.7396 31.2396 76.3438 30.25C75.9583 29.2604 75.7656 28.2135 75.7656 27.1094V26.5156C75.7656 25.276 75.9375 24.1302 76.2812 23.0781C76.625 22.0156 77.1354 21.0885 77.8125 20.2969C78.4896 19.5052 79.3385 18.8906 80.3594 18.4531C81.3802 18.0052 82.5677 17.7812 83.9219 17.7812C85.1198 17.7812 86.1927 17.974 87.1406 18.3594C88.0885 18.7448 88.8906 19.2969 89.5469 20.0156C90.2135 20.7344 90.7188 21.6042 91.0625 22.625C91.4167 23.6458 91.5938 24.7917 91.5938 26.0625V28.2031H77.7812V24.9062H86.4531V24.5C86.4635 23.9375 86.3646 23.4583 86.1562 23.0625C85.9583 22.6667 85.6667 22.3646 85.2812 22.1562C84.8958 21.9479 84.4271 21.8438 83.875 21.8438C83.3021 21.8438 82.8281 21.9688 82.4531 22.2188C82.0885 22.4688 81.8021 22.8125 81.5938 23.25C81.3958 23.6771 81.2552 24.1719 81.1719 24.7344C81.0885 25.2969 81.0469 25.8906 81.0469 26.5156V27.1094C81.0469 27.7344 81.1302 28.3021 81.2969 28.8125C81.474 29.3229 81.724 29.7604 82.0469 30.125C82.3802 30.4792 82.776 30.7552 83.2344 30.9531C83.7031 31.151 84.2344 31.25 84.8281 31.25C85.5469 31.25 86.2552 31.1146 86.9531 30.8438C87.651 30.5729 88.25 30.125 88.75 29.5L91.1406 32.3438C90.7969 32.8333 90.3073 33.3073 89.6719 33.7656C89.0469 34.224 88.2969 34.599 87.4219 34.8906C86.5469 35.1719 85.5677 35.3125 84.4844 35.3125ZM98.9062 21.7031V35H93.6406V18.0938H98.5781L98.9062 21.7031ZM98.2812 25.9688L97.0469 26C97.0469 24.7083 97.2031 23.5573 97.5156 22.5469C97.8281 21.526 98.2708 20.6615 98.8438 19.9531C99.4167 19.2448 100.099 18.7083 100.891 18.3438C101.693 17.9688 102.583 17.7812 103.562 17.7812C104.344 17.7812 105.057 17.8958 105.703 18.125C106.359 18.3542 106.922 18.724 107.391 19.2344C107.87 19.7448 108.234 20.4219 108.484 21.2656C108.745 22.099 108.875 23.1302 108.875 24.3594V35H103.578V24.3438C103.578 23.6667 103.484 23.151 103.297 22.7969C103.109 22.4323 102.839 22.1823 102.484 22.0469C102.13 21.9115 101.698 21.8438 101.188 21.8438C100.646 21.8438 100.188 21.9479 99.8125 22.1562C99.4375 22.3646 99.1354 22.6562 98.9062 23.0312C98.6875 23.3958 98.526 23.8281 98.4219 24.3281C98.3281 24.8281 98.2812 25.375 98.2812 25.9688ZM117.359 18.0938V35H112.078V18.0938H117.359ZM111.766 13.7344C111.766 12.9844 112.036 12.3698 112.578 11.8906C113.12 11.4115 113.823 11.1719 114.688 11.1719C115.552 11.1719 116.255 11.4115 116.797 11.8906C117.339 12.3698 117.609 12.9844 117.609 13.7344C117.609 14.4844 117.339 15.099 116.797 15.5781C116.255 16.0573 115.552 16.2969 114.688 16.2969C113.823 16.2969 113.12 16.0573 112.578 15.5781C112.036 15.099 111.766 14.4844 111.766 13.7344ZM130.484 30.8906V18.0938H135.766V35H130.828L130.484 30.8906ZM130.984 27.4531L132.359 27.4219C132.359 28.5573 132.224 29.6094 131.953 30.5781C131.682 31.5365 131.281 32.3698 130.75 33.0781C130.229 33.7865 129.583 34.3385 128.812 34.7344C128.052 35.1198 127.172 35.3125 126.172 35.3125C125.339 35.3125 124.573 35.1979 123.875 34.9688C123.188 34.7292 122.594 34.3594 122.094 33.8594C121.594 33.349 121.203 32.6979 120.922 31.9062C120.651 31.1042 120.516 30.1458 120.516 29.0312V18.0938H125.781V29.0625C125.781 29.4375 125.828 29.7604 125.922 30.0312C126.016 30.3021 126.151 30.5312 126.328 30.7188C126.505 30.8958 126.724 31.0312 126.984 31.125C127.255 31.2083 127.562 31.25 127.906 31.25C128.698 31.25 129.318 31.0833 129.766 30.75C130.214 30.4167 130.526 29.9635 130.703 29.3906C130.891 28.8177 130.984 28.1719 130.984 27.4531ZM147.531 30.25C147.531 29.9583 147.432 29.7083 147.234 29.5C147.047 29.2812 146.714 29.0833 146.234 28.9062C145.755 28.7188 145.083 28.5312 144.219 28.3438C143.396 28.1667 142.62 27.9323 141.891 27.6406C141.172 27.349 140.542 26.9948 140 26.5781C139.458 26.1615 139.031 25.6667 138.719 25.0938C138.417 24.5208 138.266 23.8646 138.266 23.125C138.266 22.4062 138.417 21.7292 138.719 21.0938C139.031 20.4479 139.484 19.8802 140.078 19.3906C140.682 18.8906 141.417 18.5 142.281 18.2188C143.146 17.9271 144.13 17.7812 145.234 17.7812C146.755 17.7812 148.068 18.0156 149.172 18.4844C150.276 18.9427 151.125 19.5885 151.719 20.4219C152.323 21.2448 152.625 22.1979 152.625 23.2812H147.359C147.359 22.8542 147.286 22.4896 147.141 22.1875C147.005 21.8854 146.781 21.6562 146.469 21.5C146.156 21.3333 145.74 21.25 145.219 21.25C144.854 21.25 144.521 21.3177 144.219 21.4531C143.927 21.5885 143.693 21.776 143.516 22.0156C143.339 22.2552 143.25 22.5365 143.25 22.8594C143.25 23.0885 143.302 23.2969 143.406 23.4844C143.521 23.6615 143.693 23.8281 143.922 23.9844C144.151 24.1302 144.443 24.2656 144.797 24.3906C145.151 24.5052 145.578 24.6094 146.078 24.7031C147.214 24.9115 148.276 25.2083 149.266 25.5938C150.255 25.9792 151.057 26.526 151.672 27.2344C152.297 27.9427 152.609 28.8958 152.609 30.0938C152.609 30.8438 152.438 31.5365 152.094 32.1719C151.75 32.7969 151.255 33.349 150.609 33.8281C149.964 34.2969 149.188 34.6615 148.281 34.9219C147.375 35.1823 146.354 35.3125 145.219 35.3125C143.604 35.3125 142.24 35.026 141.125 34.4531C140.01 33.8698 139.167 33.1406 138.594 32.2656C138.031 31.3802 137.75 30.4844 137.75 29.5781H142.656C142.677 30.099 142.802 30.526 143.031 30.8594C143.271 31.1927 143.589 31.4375 143.984 31.5938C144.38 31.75 144.839 31.8281 145.359 31.8281C145.839 31.8281 146.234 31.7604 146.547 31.625C146.87 31.4896 147.115 31.3073 147.281 31.0781C147.448 30.8385 147.531 30.5625 147.531 30.25ZM181.906 22.8438V32.1875C181.521 32.6146 180.927 33.0729 180.125 33.5625C179.333 34.0417 178.333 34.4531 177.125 34.7969C175.917 35.1406 174.495 35.3125 172.859 35.3125C171.349 35.3125 169.979 35.0729 168.75 34.5938C167.521 34.1042 166.464 33.3906 165.578 32.4531C164.703 31.5052 164.026 30.349 163.547 28.9844C163.078 27.6094 162.844 26.0365 162.844 24.2656V23C162.844 21.2292 163.083 19.6562 163.562 18.2812C164.042 16.9062 164.714 15.75 165.578 14.8125C166.453 13.8646 167.479 13.1458 168.656 12.6562C169.844 12.1667 171.146 11.9219 172.562 11.9219C174.656 11.9219 176.359 12.2552 177.672 12.9219C178.984 13.5781 179.979 14.4896 180.656 15.6562C181.333 16.8125 181.745 18.151 181.891 19.6719H176.625C176.521 18.9219 176.323 18.2865 176.031 17.7656C175.75 17.2344 175.344 16.8333 174.812 16.5625C174.281 16.2812 173.594 16.1406 172.75 16.1406C172.094 16.1406 171.495 16.2812 170.953 16.5625C170.422 16.8438 169.969 17.2708 169.594 17.8438C169.219 18.4062 168.927 19.1146 168.719 19.9688C168.521 20.8229 168.422 21.8229 168.422 22.9688V24.2656C168.422 25.401 168.516 26.3958 168.703 27.25C168.901 28.1042 169.193 28.8177 169.578 29.3906C169.974 29.9531 170.474 30.3802 171.078 30.6719C171.693 30.9531 172.417 31.0938 173.25 31.0938C173.833 31.0938 174.333 31.0469 174.75 30.9531C175.167 30.849 175.51 30.724 175.781 30.5781C176.062 30.4219 176.276 30.276 176.422 30.1406V26.6094H172.609V22.8438H181.906ZM193.641 30.75V23.7812C193.641 23.3021 193.573 22.8906 193.438 22.5469C193.302 22.2031 193.089 21.9375 192.797 21.75C192.505 21.5521 192.115 21.4531 191.625 21.4531C191.229 21.4531 190.891 21.5208 190.609 21.6562C190.328 21.7917 190.115 21.9948 189.969 22.2656C189.823 22.5365 189.75 22.8802 189.75 23.2969H184.484C184.484 22.5156 184.656 21.7917 185 21.125C185.354 20.4479 185.854 19.8594 186.5 19.3594C187.156 18.8594 187.938 18.474 188.844 18.2031C189.76 17.9219 190.781 17.7812 191.906 17.7812C193.25 17.7812 194.448 18.0052 195.5 18.4531C196.562 18.901 197.401 19.5729 198.016 20.4688C198.63 21.3542 198.938 22.4688 198.938 23.8125V30.7344C198.938 31.8385 199 32.6771 199.125 33.25C199.25 33.8125 199.427 34.3073 199.656 34.7344V35H194.375C194.125 34.4792 193.938 33.8438 193.812 33.0938C193.698 32.3333 193.641 31.5521 193.641 30.75ZM194.281 24.6719L194.312 27.4844H191.984C191.495 27.4844 191.078 27.5521 190.734 27.6875C190.401 27.8229 190.13 28.0104 189.922 28.25C189.724 28.4792 189.578 28.7396 189.484 29.0312C189.401 29.3229 189.359 29.6302 189.359 29.9531C189.359 30.2656 189.432 30.5469 189.578 30.7969C189.734 31.0365 189.943 31.224 190.203 31.3594C190.464 31.4948 190.755 31.5625 191.078 31.5625C191.661 31.5625 192.156 31.4531 192.562 31.2344C192.979 31.0052 193.297 30.7292 193.516 30.4062C193.734 30.0833 193.844 29.7812 193.844 29.5L195 31.6562C194.792 32.0729 194.552 32.4948 194.281 32.9219C194.021 33.349 193.693 33.7448 193.297 34.1094C192.911 34.4635 192.438 34.7552 191.875 34.9844C191.312 35.2031 190.63 35.3125 189.828 35.3125C188.786 35.3125 187.828 35.099 186.953 34.6719C186.089 34.2448 185.396 33.651 184.875 32.8906C184.354 32.1198 184.094 31.2344 184.094 30.2344C184.094 29.3594 184.25 28.5781 184.562 27.8906C184.885 27.2031 185.37 26.6198 186.016 26.1406C186.661 25.6615 187.484 25.2969 188.484 25.0469C189.484 24.7969 190.661 24.6719 192.016 24.6719H194.281ZM207.172 22.2812V35H201.906V18.0938H206.828L207.172 22.2812ZM212.172 17.9688L212.078 22.8594C211.87 22.8385 211.589 22.8125 211.234 22.7812C210.88 22.75 210.583 22.7344 210.344 22.7344C209.729 22.7344 209.198 22.8073 208.75 22.9531C208.312 23.0885 207.948 23.2969 207.656 23.5781C207.375 23.849 207.167 24.1927 207.031 24.6094C206.906 25.026 206.849 25.5104 206.859 26.0625L205.906 25.4375C205.906 24.3021 206.016 23.2708 206.234 22.3438C206.464 21.4062 206.786 20.599 207.203 19.9219C207.62 19.2344 208.125 18.7083 208.719 18.3438C209.312 17.9688 209.979 17.7812 210.719 17.7812C210.979 17.7812 211.234 17.7969 211.484 17.8281C211.745 17.8594 211.974 17.9062 212.172 17.9688ZM222.297 30.75V23.7812C222.297 23.3021 222.229 22.8906 222.094 22.5469C221.958 22.2031 221.745 21.9375 221.453 21.75C221.161 21.5521 220.771 21.4531 220.281 21.4531C219.885 21.4531 219.547 21.5208 219.266 21.6562C218.984 21.7917 218.771 21.9948 218.625 22.2656C218.479 22.5365 218.406 22.8802 218.406 23.2969H213.141C213.141 22.5156 213.312 21.7917 213.656 21.125C214.01 20.4479 214.51 19.8594 215.156 19.3594C215.812 18.8594 216.594 18.474 217.5 18.2031C218.417 17.9219 219.438 17.7812 220.562 17.7812C221.906 17.7812 223.104 18.0052 224.156 18.4531C225.219 18.901 226.057 19.5729 226.672 20.4688C227.286 21.3542 227.594 22.4688 227.594 23.8125V30.7344C227.594 31.8385 227.656 32.6771 227.781 33.25C227.906 33.8125 228.083 34.3073 228.312 34.7344V35H223.031C222.781 34.4792 222.594 33.8438 222.469 33.0938C222.354 32.3333 222.297 31.5521 222.297 30.75ZM222.938 24.6719L222.969 27.4844H220.641C220.151 27.4844 219.734 27.5521 219.391 27.6875C219.057 27.8229 218.786 28.0104 218.578 28.25C218.38 28.4792 218.234 28.7396 218.141 29.0312C218.057 29.3229 218.016 29.6302 218.016 29.9531C218.016 30.2656 218.089 30.5469 218.234 30.7969C218.391 31.0365 218.599 31.224 218.859 31.3594C219.12 31.4948 219.411 31.5625 219.734 31.5625C220.318 31.5625 220.812 31.4531 221.219 31.2344C221.635 31.0052 221.953 30.7292 222.172 30.4062C222.391 30.0833 222.5 29.7812 222.5 29.5L223.656 31.6562C223.448 32.0729 223.208 32.4948 222.938 32.9219C222.677 33.349 222.349 33.7448 221.953 34.1094C221.568 34.4635 221.094 34.7552 220.531 34.9844C219.969 35.2031 219.286 35.3125 218.484 35.3125C217.443 35.3125 216.484 35.099 215.609 34.6719C214.745 34.2448 214.052 33.651 213.531 32.8906C213.01 32.1198 212.75 31.2344 212.75 30.2344C212.75 29.3594 212.906 28.5781 213.219 27.8906C213.542 27.2031 214.026 26.6198 214.672 26.1406C215.318 25.6615 216.141 25.2969 217.141 25.0469C218.141 24.7969 219.318 24.6719 220.672 24.6719H222.938ZM241.141 18.0938H245.922V34.3438C245.922 35.9062 245.562 37.2292 244.844 38.3125C244.125 39.4062 243.12 40.2344 241.828 40.7969C240.547 41.3698 239.047 41.6562 237.328 41.6562C236.568 41.6562 235.792 41.5573 235 41.3594C234.208 41.1719 233.469 40.8906 232.781 40.5156C232.094 40.1406 231.516 39.6771 231.047 39.125L233.25 36.0312C233.677 36.5104 234.214 36.9167 234.859 37.25C235.505 37.5938 236.266 37.7656 237.141 37.7656C237.901 37.7656 238.536 37.6302 239.047 37.3594C239.568 37.0885 239.964 36.6927 240.234 36.1719C240.505 35.6615 240.641 35.0417 240.641 34.3125V22.0938L241.141 18.0938ZM229.906 26.75V26.4219C229.906 25.1406 230.062 23.974 230.375 22.9219C230.698 21.8594 231.156 20.9479 231.75 20.1875C232.354 19.4167 233.083 18.8229 233.938 18.4062C234.792 17.9896 235.755 17.7812 236.828 17.7812C237.984 17.7812 238.932 18.0052 239.672 18.4531C240.422 18.8906 241.021 19.5052 241.469 20.2969C241.927 21.0885 242.281 22.0156 242.531 23.0781C242.792 24.1302 243.01 25.2656 243.188 26.4844V26.875C243.01 28.0208 242.766 29.1042 242.453 30.125C242.151 31.1354 241.755 32.0312 241.266 32.8125C240.776 33.5938 240.161 34.2083 239.422 34.6562C238.693 35.0938 237.818 35.3125 236.797 35.3125C235.734 35.3125 234.776 35.099 233.922 34.6719C233.078 34.2448 232.354 33.6458 231.75 32.875C231.156 32.1042 230.698 31.1979 230.375 30.1562C230.062 29.1146 229.906 27.9792 229.906 26.75ZM235.172 26.4219V26.75C235.172 27.3854 235.229 27.974 235.344 28.5156C235.469 29.0573 235.656 29.5365 235.906 29.9531C236.156 30.3594 236.464 30.6771 236.828 30.9062C237.203 31.1354 237.641 31.25 238.141 31.25C238.901 31.25 239.516 31.0885 239.984 30.7656C240.453 30.4427 240.792 29.9844 241 29.3906C241.208 28.7969 241.297 28.099 241.266 27.2969V26.0625C241.286 25.375 241.24 24.7708 241.125 24.25C241.01 23.7188 240.828 23.276 240.578 22.9219C240.339 22.5677 240.016 22.3021 239.609 22.125C239.214 21.9375 238.734 21.8438 238.172 21.8438C237.682 21.8438 237.25 21.9583 236.875 22.1875C236.5 22.4167 236.188 22.7396 235.938 23.1562C235.688 23.5625 235.495 24.0469 235.359 24.6094C235.234 25.1615 235.172 25.7656 235.172 26.4219ZM257.141 35.3125C255.766 35.3125 254.536 35.099 253.453 34.6719C252.37 34.2344 251.453 33.6354 250.703 32.875C249.964 32.1146 249.396 31.2396 249 30.25C248.615 29.2604 248.422 28.2135 248.422 27.1094V26.5156C248.422 25.276 248.594 24.1302 248.938 23.0781C249.281 22.0156 249.792 21.0885 250.469 20.2969C251.146 19.5052 251.995 18.8906 253.016 18.4531C254.036 18.0052 255.224 17.7812 256.578 17.7812C257.776 17.7812 258.849 17.974 259.797 18.3594C260.745 18.7448 261.547 19.2969 262.203 20.0156C262.87 20.7344 263.375 21.6042 263.719 22.625C264.073 23.6458 264.25 24.7917 264.25 26.0625V28.2031H250.438V24.9062H259.109V24.5C259.12 23.9375 259.021 23.4583 258.812 23.0625C258.615 22.6667 258.323 22.3646 257.938 22.1562C257.552 21.9479 257.083 21.8438 256.531 21.8438C255.958 21.8438 255.484 21.9688 255.109 22.2188C254.745 22.4688 254.458 22.8125 254.25 23.25C254.052 23.6771 253.911 24.1719 253.828 24.7344C253.745 25.2969 253.703 25.8906 253.703 26.5156V27.1094C253.703 27.7344 253.786 28.3021 253.953 28.8125C254.13 29.3229 254.38 29.7604 254.703 30.125C255.036 30.4792 255.432 30.7552 255.891 30.9531C256.359 31.151 256.891 31.25 257.484 31.25C258.203 31.25 258.911 31.1146 259.609 30.8438C260.307 30.5729 260.906 30.125 261.406 29.5L263.797 32.3438C263.453 32.8333 262.964 33.3073 262.328 33.7656C261.703 34.224 260.953 34.599 260.078 34.8906C259.203 35.1719 258.224 35.3125 257.141 35.3125Z" fill="black"/>
</svg>
